 <svg xmlns="http://www.w3.org/2000/svg" id="graph" width="400" height="310"><rect id="background" width="100%" height="100%" fill="#ffffff"/><g id="centering-group" transform="translate(200,155)"><g id="grid"><g id="opacity-group" opacity="1"><g id="radial-group"><path d="M 0 0 L 6.123233995736766e-15 -100" stroke="#000000" stroke-width="1"/><path d="M 0 0 L 86.60254037844386 -50" stroke="#000000" stroke-width="1"/><path d="M 0 0 L 86.60254037844388 49.999999999999986" stroke="#000000" stroke-width="1"/><path d="M 0 0 L 6.123233995736766e-15 100" stroke="#000000" stroke-width="1"/><path d="M 0 0 L -86.60254037844385 50.000000000000036" stroke="#000000" stroke-width="1"/><path d="M 0 0 L -86.60254037844386 -50.000000000000014" stroke="#000000" stroke-width="1"/></g><g id="shape-group"><path opacity="1" d="M0,-20L17.32050807568877,-10.000000000000002L17.320508075688775,9.999999999999996L2.4492935982947065e-15,20L-17.32050807568877,10.000000000000009L-17.32050807568878,-9.999999999999986Z" stroke="#000000" stroke-width="1" fill="transparent"/><path opacity="1" d="M0,-40L34.64101615137754,-20.000000000000004L34.64101615137755,19.999999999999993L4.898587196589413e-15,40L-34.64101615137754,20.000000000000018L-34.64101615137756,-19.99999999999997Z" stroke="#000000" stroke-width="1" fill="transparent"/><path opacity="1" d="M0,-60L51.96152422706631,-30.000000000000007L51.96152422706632,29.999999999999986L7.34788079488412e-15,60L-51.961524227066306,30.00000000000003L-51.96152422706634,-29.99999999999996Z" stroke="#000000" stroke-width="1" fill="transparent"/><path opacity="1" d="M0,-80L69.28203230275508,-40.00000000000001L69.2820323027551,39.999999999999986L9.797174393178826e-15,80L-69.28203230275508,40.000000000000036L-69.28203230275513,-39.99999999999994Z" stroke="#000000" stroke-width="1" fill="transparent"/><path opacity="1" d="M0,-100L86.60254037844386,-50.000000000000014L86.60254037844388,49.99999999999998L1.2246467991473532e-14,100L-86.60254037844385,50.00000000000004L-86.6025403784439,-49.999999999999936Z" stroke="#000000" stroke-width="1" fill="transparent"/></g></g><text x="6.735557395310443e-15" y="-110" text-anchor="middle" dominant-baseline="ideographic" font-family="Verdana" font-size="17px" fill="#000000">Comprehension</text><text x="95.26279441628824" y="-55" text-anchor="start" dominant-baseline="ideographic" font-family="Verdana" font-size="17px" fill="#000000">Content</text><text x="95.26279441628826" y="54.99999999999998" text-anchor="start" dominant-baseline="hanging" font-family="Verdana" font-size="17px" fill="#000000">Delivery</text><text x="6.735557395310443e-15" y="110" text-anchor="middle" dominant-baseline="hanging" font-family="Verdana" font-size="17px" fill="#000000">Pronunciation</text><text x="-95.26279441628823" y="55.000000000000036" text-anchor="end" dominant-baseline="hanging" font-family="Verdana" font-size="17px" fill="#000000">Phrasing</text><text x="-95.26279441628824" y="-55.000000000000014" text-anchor="end" dominant-baseline="ideographic" font-family="Verdana" font-size="17px" fill="#000000">Grammar</text></g><g id="graphs"><g id="graph0-group"><path opacity="0.9" d="M0,0L0,0L51.96152422706632,29.999999999999986L7.34788079488412e-15,60L-69.28203230275508,40.000000000000036L-69.28203230275513,-39.99999999999994Z" stroke="#000000" stroke-width="1.5" fill="#204f70"/></g></g></g></svg>